<?xml version="1.0" encoding="UTF-8" standalone="no"?>
<!-- Created with Inkscape (http://www.inkscape.org/) -->

<svg
   xmlns:dc="http://purl.org/dc/elements/1.1/"
   xmlns:cc="http://creativecommons.org/ns#"
   xmlns:rdf="http://www.w3.org/1999/02/22-rdf-syntax-ns#"
   xmlns:svg="http://www.w3.org/2000/svg"
   xmlns="http://www.w3.org/2000/svg"
   xmlns:sodipodi="http://sodipodi.sourceforge.net/DTD/sodipodi-0.dtd"
   xmlns:inkscape="http://www.inkscape.org/namespaces/inkscape"
   width="462.5"
   height="291.0625"
   id="svg3261"
   version="1.1"
   inkscape:version="0.48.2 r9819"
   sodipodi:docname="dice-1.svg">
  <defs
     id="defs3263" />
  <sodipodi:namedview
     id="base"
     pagecolor="#ffffff"
     bordercolor="#666666"
     borderopacity="1.0"
     inkscape:pageopacity="0.0"
     inkscape:pageshadow="2"
     inkscape:zoom="1.4"
     inkscape:cx="156.96429"
     inkscape:cy="149.10657"
     inkscape:document-units="px"
     inkscape:current-layer="layer1"
     showgrid="false"
     inkscape:showpageshadow="false"
     fit-margin-top="8"
     fit-margin-right="8"
     fit-margin-bottom="8"
     fit-margin-left="8"
     inkscape:window-width="1600"
     inkscape:window-height="1150"
     inkscape:window-x="-8"
     inkscape:window-y="-8"
     inkscape:window-maximized="1" />
  <metadata
     id="metadata3266">
    <rdf:RDF>
      <cc:Work
         rdf:about="">
        <dc:format>image/svg+xml</dc:format>
        <dc:type
           rdf:resource="http://purl.org/dc/dcmitype/StillImage" />
        <dc:title />
      </cc:Work>
    </rdf:RDF>
  </metadata>
  <g
     inkscape:label="Layer 1"
     inkscape:groupmode="layer"
     id="layer1"
     transform="translate(-93.75,-390.40625)">
    <rect
       style="fill:#e0dfde;fill-opacity:0.86666667;fill-rule:evenodd;stroke:#000000;stroke-width:2;stroke-linecap:butt;stroke-linejoin:miter;stroke-miterlimit:10;stroke-opacity:1;stroke-dasharray:none;stroke-dashoffset:0"
       id="rect4036-5"
       width="444.52573"
       height="273.04276"
       x="102.73714"
       y="399.41223"
       rx="6"
       ry="6" />
    <rect
       style="fill:#000001;fill-opacity:1;fill-rule:evenodd;stroke:#000000;stroke-width:2;stroke-linecap:round;stroke-linejoin:miter;stroke-miterlimit:4;stroke-opacity:1;stroke-dasharray:none;stroke-dashoffset:0"
       id="rect2993-79-7-1"
       width="60"
       height="60"
       x="278.8363"
       y="500.27448"
       rx="6"
       ry="6" />
    <path
       sodipodi:type="arc"
       style="fill:#fcfaf9;fill-opacity:1;fill-rule:evenodd;stroke:#000000;stroke-width:0.43198311;stroke-linecap:round;stroke-linejoin:miter;stroke-miterlimit:4;stroke-opacity:1;stroke-dasharray:none;stroke-dashoffset:0"
       id="path3797-1-5-4-2"
       sodipodi:cx="266.25"
       sodipodi:cy="441.82648"
       sodipodi:rx="4.1071429"
       sodipodi:ry="7.6785712"
       d="m 270.35714,441.82648 a 4.1071429,7.6785712 0 1 1 -8.21428,0 4.1071429,7.6785712 0 1 1 8.21428,0 z"
       transform="matrix(1.5826087,0,0,0.84651165,-112.89041,155.54892)" />
    <rect
       style="fill:#000001;fill-opacity:1;fill-rule:evenodd;stroke:#000000;stroke-width:2;stroke-linecap:round;stroke-linejoin:miter;stroke-miterlimit:4;stroke-opacity:1;stroke-dasharray:none;stroke-dashoffset:0"
       id="rect2993-7-8-4-94-3"
       width="60"
       height="60"
       x="139.76009"
       y="550.96484"
       rx="6"
       ry="6" />
    <path
       sodipodi:type="arc"
       style="fill:#fcfaf9;fill-opacity:1;fill-rule:evenodd;stroke:#000000;stroke-width:0.43198311;stroke-linecap:round;stroke-linejoin:miter;stroke-miterlimit:4;stroke-opacity:1;stroke-dasharray:none;stroke-dashoffset:0"
       id="path3797-1-4-8-11-88-4"
       sodipodi:cx="266.25"
       sodipodi:cy="441.82648"
       sodipodi:rx="4.1071429"
       sodipodi:ry="7.6785712"
       d="m 270.35714,441.82648 a 4.1071429,7.6785712 0 1 1 -8.21428,0 4.1071429,7.6785712 0 1 1 8.21428,0 z"
       transform="matrix(1.5826087,0,0,0.84651165,-268.25233,191.02501)" />
    <path
       sodipodi:type="arc"
       style="fill:#fcfaf9;fill-opacity:1;fill-rule:evenodd;stroke:#000000;stroke-width:0.43198311;stroke-linecap:round;stroke-linejoin:miter;stroke-miterlimit:4;stroke-opacity:1;stroke-dasharray:none;stroke-dashoffset:0"
       id="path3797-4-2-3-2-1"
       sodipodi:cx="266.25"
       sodipodi:cy="441.82648"
       sodipodi:rx="4.1071429"
       sodipodi:ry="7.6785712"
       d="m 270.35714,441.82648 a 4.1071429,7.6785712 0 1 1 -8.21428,0 4.1071429,7.6785712 0 1 1 8.21428,0 z"
       transform="matrix(1.5826087,0,0,0.84651165,-235.03805,223.81074)" />
    <path
       sodipodi:type="arc"
       style="fill:#fcfaf9;fill-opacity:1;fill-rule:evenodd;stroke:#000000;stroke-width:0.43198311;stroke-linecap:round;stroke-linejoin:miter;stroke-miterlimit:4;stroke-opacity:1;stroke-dasharray:none;stroke-dashoffset:0"
       id="path3797-45-8-4-1"
       sodipodi:cx="266.25"
       sodipodi:cy="441.82648"
       sodipodi:rx="4.1071429"
       sodipodi:ry="7.6785712"
       d="m 270.35714,441.82648 a 4.1071429,7.6785712 0 1 1 -8.21428,0 4.1071429,7.6785712 0 1 1 8.21428,0 z"
       transform="matrix(1.5826087,0,0,0.84651165,-251.60949,207.31072)" />
    <rect
       style="fill:#000001;fill-opacity:1;fill-rule:evenodd;stroke:#000000;stroke-width:2;stroke-linecap:round;stroke-linejoin:miter;stroke-miterlimit:4;stroke-opacity:1;stroke-dasharray:none;stroke-dashoffset:0"
       id="rect2993-7-8-5-5-8"
       width="60"
       height="60"
       x="165.15097"
       y="455.909"
       rx="6"
       ry="6" />
    <path
       sodipodi:type="arc"
       style="fill:#fcfaf9;fill-opacity:1;fill-rule:evenodd;stroke:#000000;stroke-width:0.43198311;stroke-linecap:round;stroke-linejoin:miter;stroke-miterlimit:4;stroke-opacity:1;stroke-dasharray:none;stroke-dashoffset:0"
       id="path3797-1-4-8-2-1-7"
       sodipodi:cx="266.25"
       sodipodi:cy="441.82648"
       sodipodi:rx="4.1071429"
       sodipodi:ry="7.6785712"
       d="m 270.35714,441.82648 a 4.1071429,7.6785712 0 1 1 -8.21428,0 4.1071429,7.6785712 0 1 1 8.21428,0 z"
       transform="matrix(1.5826087,0,0,0.84651165,-242.86143,95.969163)" />
    <path
       sodipodi:type="arc"
       style="fill:#fcfaf9;fill-opacity:1;fill-rule:evenodd;stroke:#000000;stroke-width:0.43198311;stroke-linecap:round;stroke-linejoin:miter;stroke-miterlimit:4;stroke-opacity:1;stroke-dasharray:none;stroke-dashoffset:0"
       id="path3797-4-2-7-7-4"
       sodipodi:cx="266.25"
       sodipodi:cy="441.82648"
       sodipodi:rx="4.1071429"
       sodipodi:ry="7.6785712"
       d="m 270.35714,441.82648 a 4.1071429,7.6785712 0 1 1 -8.21428,0 4.1071429,7.6785712 0 1 1 8.21428,0 z"
       transform="matrix(1.5826087,0,0,0.84651165,-209.64715,128.75489)" />
    <path
       sodipodi:type="arc"
       style="fill:#fcfaf9;fill-opacity:1;fill-rule:evenodd;stroke:#000000;stroke-width:0.43198311;stroke-linecap:round;stroke-linejoin:miter;stroke-miterlimit:4;stroke-opacity:1;stroke-dasharray:none;stroke-dashoffset:0"
       id="path3797-45-6-1-2"
       sodipodi:cx="266.25"
       sodipodi:cy="441.82648"
       sodipodi:rx="4.1071429"
       sodipodi:ry="7.6785712"
       d="m 270.35714,441.82648 a 4.1071429,7.6785712 0 1 1 -8.21428,0 4.1071429,7.6785712 0 1 1 8.21428,0 z"
       transform="matrix(1.5826087,0,0,0.84651165,-226.21859,112.25487)" />
    <path
       sodipodi:type="arc"
       style="fill:#fcfaf9;fill-opacity:1;fill-rule:evenodd;stroke:#000000;stroke-width:0.43198311;stroke-linecap:round;stroke-linejoin:miter;stroke-miterlimit:4;stroke-opacity:1;stroke-dasharray:none;stroke-dashoffset:0"
       id="path3797-1-4-8-1-1-7"
       sodipodi:cx="266.25"
       sodipodi:cy="441.82648"
       sodipodi:rx="4.1071429"
       sodipodi:ry="7.6785712"
       d="m 270.35714,441.82648 a 4.1071429,7.6785712 0 1 1 -8.21428,0 4.1071429,7.6785712 0 1 1 8.21428,0 z"
       transform="matrix(-1.5826087,0,0,0.84651165,632.19911,96.433443)" />
    <path
       sodipodi:type="arc"
       style="fill:#fcfaf9;fill-opacity:1;fill-rule:evenodd;stroke:#000000;stroke-width:0.43198311;stroke-linecap:round;stroke-linejoin:miter;stroke-miterlimit:4;stroke-opacity:1;stroke-dasharray:none;stroke-dashoffset:0"
       id="path3797-4-2-4-5-7"
       sodipodi:cx="266.25"
       sodipodi:cy="441.82648"
       sodipodi:rx="4.1071429"
       sodipodi:ry="7.6785712"
       d="m 270.35714,441.82648 a 4.1071429,7.6785712 0 1 1 -8.21428,0 4.1071429,7.6785712 0 1 1 8.21428,0 z"
       transform="matrix(-1.5826087,0,0,0.84651165,598.98483,129.21917)" />
    <rect
       style="fill:#000001;fill-opacity:1;fill-rule:evenodd;stroke:#000000;stroke-width:2;stroke-linecap:round;stroke-linejoin:miter;stroke-miterlimit:4;stroke-opacity:1;stroke-dasharray:none;stroke-dashoffset:0"
       id="rect2993-7-7-3"
       width="60"
       height="60"
       x="384.20108"
       y="538.47595"
       rx="6"
       ry="6" />
    <path
       sodipodi:type="arc"
       style="fill:#fcfaf9;fill-opacity:1;fill-rule:evenodd;stroke:#000000;stroke-width:0.43198311;stroke-linecap:round;stroke-linejoin:miter;stroke-miterlimit:4;stroke-opacity:1;stroke-dasharray:none;stroke-dashoffset:0"
       id="path3797-1-4-6-1"
       sodipodi:cx="266.25"
       sodipodi:cy="441.82648"
       sodipodi:rx="4.1071429"
       sodipodi:ry="7.6785712"
       d="m 270.35714,441.82648 a 4.1071429,7.6785712 0 1 1 -8.21428,0 4.1071429,7.6785712 0 1 1 8.21428,0 z"
       transform="matrix(1.5826087,0,0,0.84651165,-23.81132,178.53615)" />
    <path
       sodipodi:type="arc"
       style="fill:#fcfaf9;fill-opacity:1;fill-rule:evenodd;stroke:#000000;stroke-width:0.43198311;stroke-linecap:round;stroke-linejoin:miter;stroke-miterlimit:4;stroke-opacity:1;stroke-dasharray:none;stroke-dashoffset:0"
       id="path3797-4-1-9"
       sodipodi:cx="266.25"
       sodipodi:cy="441.82648"
       sodipodi:rx="4.1071429"
       sodipodi:ry="7.6785712"
       d="m 270.35714,441.82648 a 4.1071429,7.6785712 0 1 1 -8.21428,0 4.1071429,7.6785712 0 1 1 8.21428,0 z"
       transform="matrix(1.5826087,0,0,0.84651165,9.40296,211.32188)" />
    <rect
       style="fill:#000001;fill-opacity:1;fill-rule:evenodd;stroke:#000000;stroke-width:2;stroke-linecap:round;stroke-linejoin:miter;stroke-miterlimit:4;stroke-opacity:1;stroke-dasharray:none;stroke-dashoffset:0"
       id="rect2993-7-5-2-6"
       width="60"
       height="60"
       x="475.0336"
       y="567.57245"
       rx="6"
       ry="6" />
    <path
       sodipodi:type="arc"
       style="fill:#fcfaf9;fill-opacity:1;fill-rule:evenodd;stroke:#000000;stroke-width:0.43198311;stroke-linecap:round;stroke-linejoin:miter;stroke-miterlimit:4;stroke-opacity:1;stroke-dasharray:none;stroke-dashoffset:0"
       id="path3797-1-4-1-3-5"
       sodipodi:cx="266.25"
       sodipodi:cy="441.82648"
       sodipodi:rx="4.1071429"
       sodipodi:ry="7.6785712"
       d="m 270.35714,441.82648 a 4.1071429,7.6785712 0 1 1 -8.21428,0 4.1071429,7.6785712 0 1 1 8.21428,0 z"
       transform="matrix(1.5826087,0,0,0.84651165,67.02119,207.63263)" />
    <path
       sodipodi:type="arc"
       style="fill:#fcfaf9;fill-opacity:1;fill-rule:evenodd;stroke:#000000;stroke-width:0.43198311;stroke-linecap:round;stroke-linejoin:miter;stroke-miterlimit:4;stroke-opacity:1;stroke-dasharray:none;stroke-dashoffset:0"
       id="path3797-4-7-22-0"
       sodipodi:cx="266.25"
       sodipodi:cy="441.82648"
       sodipodi:rx="4.1071429"
       sodipodi:ry="7.6785712"
       d="m 270.35714,441.82648 a 4.1071429,7.6785712 0 1 1 -8.21428,0 4.1071429,7.6785712 0 1 1 8.21428,0 z"
       transform="matrix(1.5826087,0,0,0.84651165,100.23547,240.41836)" />
    <path
       sodipodi:type="arc"
       style="fill:#fcfaf9;fill-opacity:1;fill-rule:evenodd;stroke:#000000;stroke-width:0.43198311;stroke-linecap:round;stroke-linejoin:miter;stroke-miterlimit:4;stroke-opacity:1;stroke-dasharray:none;stroke-dashoffset:0"
       id="path3797-1-4-1-1-16-2"
       sodipodi:cx="266.25"
       sodipodi:cy="441.82648"
       sodipodi:rx="4.1071429"
       sodipodi:ry="7.6785712"
       d="m 270.35714,441.82648 a 4.1071429,7.6785712 0 1 1 -8.21428,0 4.1071429,7.6785712 0 1 1 8.21428,0 z"
       transform="matrix(-1.5826087,0,0,0.84651165,942.93888,207.66834)" />
    <path
       sodipodi:type="arc"
       style="fill:#fcfaf9;fill-opacity:1;fill-rule:evenodd;stroke:#000000;stroke-width:0.43198311;stroke-linecap:round;stroke-linejoin:miter;stroke-miterlimit:4;stroke-opacity:1;stroke-dasharray:none;stroke-dashoffset:0"
       id="path3797-4-7-1-8-8"
       sodipodi:cx="266.25"
       sodipodi:cy="441.82648"
       sodipodi:rx="4.1071429"
       sodipodi:ry="7.6785712"
       d="m 270.35714,441.82648 a 4.1071429,7.6785712 0 1 1 -8.21428,0 4.1071429,7.6785712 0 1 1 8.21428,0 z"
       transform="matrix(-1.5826087,0,0,0.84651165,909.7246,240.45407)" />
    <rect
       style="fill:#000001;fill-opacity:1;fill-rule:evenodd;stroke:#000000;stroke-width:2;stroke-linecap:round;stroke-linejoin:miter;stroke-miterlimit:4;stroke-opacity:1;stroke-dasharray:none;stroke-dashoffset:0"
       id="rect2993-7-5-3-7-0"
       width="60"
       height="60"
       x="444.95233"
       y="430.71964"
       rx="6"
       ry="6" />
    <path
       sodipodi:type="arc"
       style="fill:#fcfaf9;fill-opacity:1;fill-rule:evenodd;stroke:#000000;stroke-width:0.43198311;stroke-linecap:round;stroke-linejoin:miter;stroke-miterlimit:4;stroke-opacity:1;stroke-dasharray:none;stroke-dashoffset:0"
       id="path3797-1-4-1-2-6-2"
       sodipodi:cx="266.25"
       sodipodi:cy="441.82648"
       sodipodi:rx="4.1071429"
       sodipodi:ry="7.6785712"
       d="m 270.35714,441.82648 a 4.1071429,7.6785712 0 1 1 -8.21428,0 4.1071429,7.6785712 0 1 1 8.21428,0 z"
       transform="matrix(1.5826087,0,0,0.84651165,36.93991,70.779793)" />
    <path
       sodipodi:type="arc"
       style="fill:#fcfaf9;fill-opacity:1;fill-rule:evenodd;stroke:#000000;stroke-width:0.43198311;stroke-linecap:round;stroke-linejoin:miter;stroke-miterlimit:4;stroke-opacity:1;stroke-dasharray:none;stroke-dashoffset:0"
       id="path3797-4-7-2-1-4"
       sodipodi:cx="266.25"
       sodipodi:cy="441.82648"
       sodipodi:rx="4.1071429"
       sodipodi:ry="7.6785712"
       d="m 270.35714,441.82648 a 4.1071429,7.6785712 0 1 1 -8.21428,0 4.1071429,7.6785712 0 1 1 8.21428,0 z"
       transform="matrix(1.5826087,0,0,0.84651165,70.154193,103.56552)" />
    <path
       sodipodi:type="arc"
       style="fill:#fcfaf9;fill-opacity:1;fill-rule:evenodd;stroke:#000000;stroke-width:0.43198311;stroke-linecap:round;stroke-linejoin:miter;stroke-miterlimit:4;stroke-opacity:1;stroke-dasharray:none;stroke-dashoffset:0"
       id="path3797-1-4-1-1-1-8-8"
       sodipodi:cx="266.25"
       sodipodi:cy="441.82648"
       sodipodi:rx="4.1071429"
       sodipodi:ry="7.6785712"
       d="m 270.35714,441.82648 a 4.1071429,7.6785712 0 1 1 -8.21428,0 4.1071429,7.6785712 0 1 1 8.21428,0 z"
       transform="matrix(-1.5826087,0,0,0.84651165,912.8576,70.815503)" />
    <path
       sodipodi:type="arc"
       style="fill:#fcfaf9;fill-opacity:1;fill-rule:evenodd;stroke:#000000;stroke-width:0.43198311;stroke-linecap:round;stroke-linejoin:miter;stroke-miterlimit:4;stroke-opacity:1;stroke-dasharray:none;stroke-dashoffset:0"
       id="path3797-4-7-1-6-92-6"
       sodipodi:cx="266.25"
       sodipodi:cy="441.82648"
       sodipodi:rx="4.1071429"
       sodipodi:ry="7.6785712"
       d="m 270.35714,441.82648 a 4.1071429,7.6785712 0 1 1 -8.21428,0 4.1071429,7.6785712 0 1 1 8.21428,0 z"
       transform="matrix(-1.5826087,0,0,0.84651165,879.64332,103.60123)" />
    <path
       sodipodi:type="arc"
       style="fill:#fcfaf9;fill-opacity:1;fill-rule:evenodd;stroke:#000000;stroke-width:0.43198311;stroke-linecap:round;stroke-linejoin:miter;stroke-miterlimit:4;stroke-opacity:1;stroke-dasharray:none;stroke-dashoffset:0"
       id="path3797-4-7-2-8-7-5"
       sodipodi:cx="266.25"
       sodipodi:cy="441.82648"
       sodipodi:rx="4.1071429"
       sodipodi:ry="7.6785712"
       d="m 270.35714,441.82648 a 4.1071429,7.6785712 0 1 1 -8.21428,0 4.1071429,7.6785712 0 1 1 8.21428,0 z"
       transform="matrix(1.5826087,0,0,0.84651165,70.136337,87.476213)" />
    <path
       sodipodi:type="arc"
       style="fill:#fcfaf9;fill-opacity:1;fill-rule:evenodd;stroke:#000000;stroke-width:0.43198311;stroke-linecap:round;stroke-linejoin:miter;stroke-miterlimit:4;stroke-opacity:1;stroke-dasharray:none;stroke-dashoffset:0"
       id="path3797-4-7-1-6-9-9-0"
       sodipodi:cx="266.25"
       sodipodi:cy="441.82648"
       sodipodi:rx="4.1071429"
       sodipodi:ry="7.6785712"
       d="m 270.35714,441.82648 a 4.1071429,7.6785712 0 1 1 -8.21428,0 4.1071429,7.6785712 0 1 1 8.21428,0 z"
       transform="matrix(-1.5826087,0,0,0.84651165,879.62547,87.511923)" />
  </g>
</svg>
